<svg xmlns="http://www.w3.org/2000/svg" width="28" height="28" viewBox="0 0 28 28">
    <defs>
        <filter id="kdlw4myh4a">
            <feColorMatrix in="SourceGraphic" values="0 0 0 0 0.000000 0 0 0 0 0.000000 0 0 0 0 0.000000 0 0 0 1.000000 0"/>
        </filter>
    </defs>
    <g fill="none" fill-rule="evenodd" opacity=".45">
        <g>
            <g filter="url(#kdlw4myh4a)" transform="translate(-626 -129) translate(600 103)">
                <g>
                    <path fill="#000" fill-rule="nonzero" d="M11.66 0C5.234 0 0 5.234 0 11.66c0 6.425 5.234 11.66 11.66 11.66 2.794 0 5.36-.993 7.371-2.64l6.962 6.961c.292.305.726.428 1.135.321.409-.106.728-.425.834-.834.107-.409-.016-.843-.32-1.135L20.68 19.03c1.647-2.011 2.64-4.577 2.64-7.371C23.32 5.234 18.084 0 11.66 0zm0 2.332c5.165 0 9.327 4.162 9.327 9.328 0 5.165-4.162 9.327-9.327 9.327-5.166 0-9.328-4.162-9.328-9.327 0-5.166 4.162-9.328 9.328-9.328z" transform="translate(26 26)"/>
                </g>
            </g>
        </g>
    </g>
</svg>
